<svg xmlns="http://www.w3.org/2000/svg" xmlns:xlink="http://www.w3.org/1999/xlink" viewBox="0,0,256,256" width="40px" height="40px"><g fill="none" fill-rule="nonzero" stroke="none" stroke-width="1" stroke-linecap="butt" stroke-linejoin="miter" stroke-miterlimit="10" stroke-dasharray="" stroke-dashoffset="0" font-family="none" font-weight="none" font-size="none" text-anchor="none" style="mix-blend-mode: normal"><g transform="scale(8.53333,8.53333)"><path d="M13.391,28.5l-0.823,-3.292l-0.284,-0.076c-1.788,-0.479 -3.417,-1.416 -4.71,-2.71l-0.208,-0.208l-3.251,0.93l-1.609,-2.788l2.439,-2.358l-0.076,-0.284c-0.245,-0.913 -0.369,-1.826 -0.369,-2.714c0,-0.888 0.124,-1.801 0.367,-2.713l0.076,-0.284l-2.439,-2.359l1.609,-2.788l3.251,0.93l0.208,-0.208c1.293,-1.294 2.922,-2.231 4.71,-2.71l0.284,-0.076l0.825,-3.292h3.219l0.823,3.292l0.284,0.076c1.789,0.479 3.417,1.416 4.71,2.71l0.208,0.208l3.251,-0.93l1.61,2.788l-2.439,2.358l0.076,0.284c0.243,0.913 0.367,1.826 0.367,2.714c0,0.888 -0.124,1.801 -0.367,2.713l-0.076,0.284l2.439,2.358l-1.609,2.789l-3.251,-0.93l-0.208,0.208c-1.293,1.294 -2.922,2.231 -4.71,2.71l-0.284,0.076l-0.825,3.292zM15,9c-3.309,0 -6,2.691 -6,6c0,3.309 2.691,6 6,6c3.309,0 6,-2.691 6,-6c0,-3.309 -2.691,-6 -6,-6z" fill="#ffd39c"></path><path d="M16.219,2l0.657,2.628l0.143,0.571l0.569,0.152c1.703,0.456 3.254,1.348 4.485,2.58l0.416,0.417l0.566,-0.162l2.593,-0.742l1.219,2.112l-1.947,1.883l-0.423,0.409l0.152,0.568c0.233,0.87 0.351,1.739 0.351,2.584c0,0.845 -0.118,1.714 -0.35,2.584l-0.152,0.568l0.423,0.409l1.947,1.883l-1.219,2.112l-2.593,-0.742l-0.566,-0.162l-0.416,0.417c-1.231,1.232 -2.782,2.124 -4.485,2.58l-0.569,0.152l-0.143,0.571l-0.658,2.628h-2.439l-0.657,-2.628l-0.143,-0.571l-0.569,-0.152c-1.703,-0.456 -3.254,-1.348 -4.485,-2.58l-0.416,-0.417l-0.566,0.162l-2.593,0.742l-1.219,-2.112l1.947,-1.883l0.423,-0.409l-0.152,-0.568c-0.232,-0.87 -0.35,-1.739 -0.35,-2.584c0,-0.845 0.118,-1.714 0.35,-2.584l0.152,-0.568l-0.423,-0.409l-1.947,-1.883l1.219,-2.112l2.593,0.742l0.566,0.162l0.416,-0.417c1.231,-1.232 2.782,-2.124 4.485,-2.58l0.569,-0.152l0.143,-0.571l0.658,-2.628h2.438M15,21.5c3.584,0 6.5,-2.916 6.5,-6.5c0,-3.584 -2.916,-6.5 -6.5,-6.5c-3.584,0 -6.5,2.916 -6.5,6.5c0,3.584 2.916,6.5 6.5,6.5M17,1h-4l-0.846,3.385c-1.893,0.507 -3.589,1.493 -4.934,2.839l-3.344,-0.956l-2,3.464l2.509,2.426c-0.243,0.908 -0.385,1.857 -0.385,2.842c0,0.985 0.142,1.934 0.384,2.842l-2.509,2.426l2,3.464l3.344,-0.956c1.345,1.346 3.041,2.332 4.934,2.839l0.847,3.385h4l0.846,-3.385c1.893,-0.507 3.59,-1.493 4.934,-2.839l3.344,0.956l2,-3.464l-2.509,-2.426c0.243,-0.908 0.385,-1.857 0.385,-2.842c0,-0.985 -0.142,-1.934 -0.384,-2.842l2.509,-2.426l-2,-3.464l-3.344,0.957c-1.345,-1.346 -3.041,-2.332 -4.934,-2.839l-0.847,-3.386zM15,20.5c-3.038,0 -5.5,-2.462 -5.5,-5.5c0,-3.038 2.462,-5.5 5.5,-5.5c3.038,0 5.5,2.462 5.5,5.5c0,3.038 -2.462,5.5 -5.5,5.5z" fill="#ffb133"></path><g><path d="M15,22.5c-4.136,0 -7.5,-3.364 -7.5,-7.5c0,-4.136 3.364,-7.5 7.5,-7.5c4.136,0 7.5,3.364 7.5,7.5c0,4.136 -3.364,7.5 -7.5,7.5zM15,11.5c-1.93,0 -3.5,1.57 -3.5,3.5c0,1.93 1.57,3.5 3.5,3.5c1.93,0 3.5,-1.57 3.5,-3.5c0,-1.93 -1.57,-3.5 -3.5,-3.5z" fill="#fef5e2"></path><path d="M15,8c3.86,0 7,3.14 7,7c0,3.86 -3.14,7 -7,7c-3.86,0 -7,-3.14 -7,-7c0,-3.86 3.14,-7 7,-7M15,19c2.206,0 4,-1.794 4,-4c0,-2.206 -1.794,-4 -4,-4c-2.206,0 -4,1.794 -4,4c0,2.206 1.794,4 4,4M15,7c-4.418,0 -8,3.582 -8,8c0,4.418 3.582,8 8,8c4.418,0 8,-3.582 8,-8c0,-4.418 -3.582,-8 -8,-8zM15,18c-1.657,0 -3,-1.343 -3,-3c0,-1.657 1.343,-3 3,-3c1.657,0 3,1.343 3,3c0,1.657 -1.343,3 -3,3z" fill="#ffb133"></path></g></g></g></svg>