<svg width="125" height="125" viewBox="0 0 125 125" fill="none" xmlns="http://www.w3.org/2000/svg">
<path fill-rule="evenodd" clip-rule="evenodd" d="M4.57646 4.57647C7.50672 1.64621 11.481 9.17912e-06 15.625 9.17912e-06H109.375C113.519 9.17912e-06 117.493 1.64621 120.424 4.57647C123.354 7.50672 125 11.481 125 15.625V109.375C125 113.519 123.354 117.493 120.424 120.424C117.493 123.354 113.519 125 109.375 125H15.625C11.481 125 7.50672 123.354 4.57646 120.424C1.6462 117.493 3.43472e-06 113.519 3.43472e-06 109.375V15.625C3.43472e-06 11.481 1.6462 7.50672 4.57646 4.57647ZM105.574 66.2881C106.578 65.2834 107.143 63.9208 107.143 62.5C107.143 61.0792 106.578 59.7166 105.574 58.7119C104.569 57.7073 103.207 57.1429 101.786 57.1429H67.8571L62.5 57.1427L57.1429 57.1429H23.2143C21.7935 57.1429 20.4309 57.7073 19.4262 58.7119C18.4216 59.7166 17.8571 61.0792 17.8571 62.5C17.8571 63.9208 18.4216 65.2834 19.4262 66.2881C20.4309 67.2927 21.7935 67.8571 23.2143 67.8571H57.1429H62.5H67.8571H101.786C103.207 67.8571 104.569 67.2927 105.574 66.2881Z" fill="#9ba5ca"/>
</svg>
