<svg width="6" height="20" viewBox="0 0 6 20" fill="none" xmlns="http://www.w3.org/2000/svg">
<path d="M3 20C2.3125 20 1.72375 19.7554 1.23375 19.2662C0.743752 18.7771 0.499169 18.1883 0.500002 17.5C0.500002 16.8125 0.745002 16.2242 1.235 15.735C1.725 15.2458 2.31333 15.0008 3 15C3.6875 15 4.27625 15.245 4.76625 15.735C5.25625 16.225 5.50083 16.8133 5.5 17.5C5.5 18.1875 5.255 18.7762 4.765 19.2662C4.275 19.7562 3.68667 20.0008 3 20ZM3 12.5C2.3125 12.5 1.72375 12.2554 1.23375 11.7662C0.743752 11.2771 0.499169 10.6883 0.500002 10C0.500002 9.3125 0.745002 8.72375 1.235 8.23375C1.725 7.74375 2.31333 7.49917 3 7.5C3.6875 7.5 4.27625 7.745 4.76625 8.235C5.25625 8.725 5.50083 9.31333 5.5 10C5.5 10.6875 5.255 11.2762 4.765 11.7662C4.275 12.2562 3.68667 12.5008 3 12.5ZM3 5C2.3125 5 1.72375 4.75542 1.23375 4.26625C0.743752 3.77708 0.499169 3.18833 0.500002 2.5C0.500002 1.8125 0.745002 1.22375 1.235 0.733752C1.725 0.243752 2.31333 -0.000831211 3 2.12224e-06C3.6875 2.12224e-06 4.27625 0.245002 4.76625 0.735002C5.25625 1.225 5.50083 1.81333 5.5 2.5C5.5 3.1875 5.255 3.77625 4.765 4.26625C4.275 4.75625 3.68667 5.00083 3 5Z" fill="#263871"/>
</svg>
